# xmcd CD database file
#
# Track frame offsets:
#	150
#	14527
#	31901
#
# Disc length: 613 seconds
#
# Revision: 2
# Processed by: cddbd v1.5.2PL0 Copyright (c) Steve Scherf et al.
# Submitted via: CDex 1.51
#
DISCID=1a026303
DTITLE=Stanfour - Do It All
DYEAR=1900
DGENRE=Country
TTITLE0=Do it all
TTITLE1=Better off alone
TTITLE2=Do it all (acoustic version)
EXTD=
EXTT0=
EXTT1=
EXTT2=
PLAYORDER=
